<?xml version="1.0" encoding="UTF-8"?>
<svg version="1.1" xmlns="http://www.w3.org/2000/svg" width="512" height="512">
<path d="M0 0 C168.96 0 337.92 0 512 0 C512 168.96 512 337.92 512 512 C343.04 512 174.08 512 0 512 C0 343.04 0 174.08 0 0 Z " fill="#367386" transform="translate(0,0)"/>
<path d="M0 0 C168.96 0 337.92 0 512 0 C512 168.96 512 337.92 512 512 C343.04 512 174.08 512 0 512 C0 343.04 0 174.08 0 0 Z M214 16 C212.93845703 16.23106445 211.87691406 16.46212891 210.78320312 16.70019531 C154.60885602 29.20960874 102.50561816 58.96971819 67 105 C65.99705324 106.25207127 64.99307104 107.50331354 63.98828125 108.75390625 C51.95029895 123.90823813 42.07639181 140.41902301 34 158 C33.66516602 158.72477539 33.33033203 159.44955078 32.98535156 160.19628906 C24.10498499 179.66638855 19.09856177 200.05679973 15 221 C14.75121094 222.23105469 14.50242187 223.46210938 14.24609375 224.73046875 C9.49123994 253.09333798 12.61964122 285.36527314 20 313 C20.29898193 314.18770996 20.29898193 314.18770996 20.60400391 315.39941406 C27.97046816 344.60441093 41.01903266 372.8126771 59 397 C59.41459473 397.5686377 59.82918945 398.13727539 60.25634766 398.72314453 C66.57996724 407.38271871 73.56081518 415.28725336 81 423 C81.61681641 423.64404785 82.23363281 424.2880957 82.86914062 424.95166016 C91.69720556 434.12959107 100.74258902 442.45683051 111 450 C112.10574725 450.83556908 113.2112168 451.67150577 114.31640625 452.5078125 C140.61230967 472.12520858 171.1827264 485.47000781 203 493 C204.258125 493.29777344 205.51625 493.59554688 206.8125 493.90234375 C222.11288411 497.33468438 236.69055499 498.37146511 252.3125 498.3125 C253.77074692 498.31026428 253.77074692 498.31026428 255.25845337 498.3079834 C276.35270072 498.24984324 296.58603806 496.55972768 317 491 C318.13695312 490.70351563 319.27390625 490.40703125 320.4453125 490.1015625 C336.70451251 485.68781215 352.19175013 480.0326105 367 472 C368.11036621 471.40566162 368.11036621 471.40566162 369.24316406 470.79931641 C399.78326135 454.41429149 429.07914419 431.93478435 450 404 C450.78246094 402.97261719 451.56492187 401.94523437 452.37109375 400.88671875 C475.79282691 369.52884802 492.23146615 330.91780464 497 292 C497.17152588 290.76386963 497.34305176 289.52773926 497.51977539 288.25415039 C498.99253062 277.29757857 499.36297712 266.48447702 499.3125 255.4375 C499.30876877 254.12465027 499.30876877 254.12465027 499.30496216 252.78527832 C499.00512683 184.32313814 470.091959 125.45779059 422.16235352 77.85961914 C415.14461121 70.97173483 408.03827914 64.6565668 400 59 C399.1344751 58.38390869 399.1344751 58.38390869 398.25146484 57.75537109 C367.84680648 36.24722615 333.7354116 22.96606465 297.3125 15.8125 C296.48234375 15.64556641 295.6521875 15.47863281 294.796875 15.30664062 C269.53164524 10.50268849 239.12150142 10.42461175 214 16 Z " fill="#F3F5F5" transform="translate(0,0)"/>
<path d="M0 0 C0.33 0 0.66 0 1 0 C1.08975098 0.89904053 1.17950195 1.79808105 1.27197266 2.72436523 C3.23242348 21.89552353 5.87166274 40.3711171 11 59 C11.3789453 60.44235665 11.75668001 61.88503228 12.1328125 63.328125 C13.66974648 69.0159909 15.39808804 74.41316386 17.94970703 79.72827148 C18.99809093 81.99587077 19.91284919 84.28304208 20.8125 86.61328125 C31.43667065 113.32562177 47.44151949 137.99274315 67 159 C68.1294227 160.30869615 69.25458759 161.62108164 70.375 162.9375 C78.17432739 171.85101702 86.68436778 179.70062791 96 187 C96.96164063 187.77859375 97.92328125 188.5571875 98.9140625 189.359375 C151.33991978 231.03461344 218.36125149 248.71313504 284.625 242.3125 C287.76441382 241.95329548 290.87999843 241.49949122 294 241 C295.47025635 240.76603516 295.47025635 240.76603516 296.97021484 240.52734375 C315.41757423 237.48517729 334.70582799 233.66233364 351.53662109 225.19335938 C353.89479188 224.05096703 356.25890496 223.07839772 358.703125 222.13671875 C385.39737411 211.55789581 409.51698049 195.17835291 430.33203125 175.51171875 C432.89355333 173.1002126 435.52744912 170.80157541 438.1875 168.5 C442.59471415 164.55187066 446.26752996 160.23596379 449.9296875 155.59765625 C451.65526809 153.43254098 453.43323131 151.40406547 455.3125 149.375 C490.56159511 109.17153899 505.63619199 56.97579401 511 5 C511.33 5 511.66 5 512 5 C512 84.2 512 163.4 512 245 C343.04 245 174.08 245 0 245 C0 164.15 0 83.3 0 0 Z " fill="#F9FAFA" transform="translate(0,267)"/>
<path d="M0 0 C77.88 0 155.76 0 236 0 C236 0.33 236 0.66 236 1 C235.06285156 1.08636719 234.12570313 1.17273438 233.16015625 1.26171875 C177.75237965 6.82699764 126.45745607 30.34301553 85.41015625 67.8125 C83.07418746 69.93266617 80.69673125 71.9969731 78.3125 74.0625 C74.84668279 77.13985434 71.76969533 80.36814062 68.78515625 83.91015625 C67.57784917 85.3235245 66.33392129 86.70628467 65.05859375 88.05859375 C37.74473065 117.08271715 17.51914001 156.38547255 8.375 195.0625 C7.92616455 196.9504126 7.92616455 196.9504126 7.46826172 198.87646484 C3.52978345 215.85966708 1.57685797 232.59480272 1 250 C0.67 250 0.34 250 0 250 C0 167.5 0 85 0 0 Z " fill="#F9F9F9" transform="translate(0,0)"/>
<path d="M0 0 C78.54 0 157.08 0 238 0 C238 76.56 238 153.12 238 232 C237.67 232 237.34 232 237 232 C236.88108398 231.06208618 236.88108398 231.06208618 236.75976562 230.10522461 C234.95226155 216.28555775 232.4552847 202.84873723 228.9375 189.375 C228.76605469 188.71378143 228.59460938 188.05256287 228.41796875 187.37130737 C226.6101951 180.44219117 224.74150366 173.6207957 222 167 C221.69811768 166.25202148 221.39623535 165.50404297 221.08520508 164.73339844 C210.67965557 139.22104307 197.70653826 115.20825058 180 94 C179.52594727 93.42443359 179.05189453 92.84886719 178.56347656 92.25585938 C168.13260033 79.61617367 156.96824103 68.06242518 144 58 C142.7223871 56.98210857 141.44506332 55.96385418 140.16796875 54.9453125 C130.24738091 47.11161364 119.98340781 40.25115752 109 34 C107.87537354 33.35635498 107.87537354 33.35635498 106.72802734 32.69970703 C91.9399613 24.33131568 76.32119389 17.97536551 60.17626953 12.71459961 C58.72169614 12.23697606 57.27202356 11.74416922 55.82763672 11.23657227 C49.96932019 9.19440806 44.07178606 7.7594118 38 6.5 C36.97777344 6.28641846 35.95554687 6.07283691 34.90234375 5.8527832 C23.35834185 3.53398877 11.70588218 2.19895706 0 1 C0 0.67 0 0.34 0 0 Z " fill="#FAFAFA" transform="translate(274,0)"/>
<path d="M0 0 C0.82576538 -0.00261841 1.65153076 -0.00523682 2.50231934 -0.00793457 C25.05428748 -0.01552235 47.33718326 2.58605522 69.1875 8.3125 C70.43144531 8.63089844 71.67539062 8.94929687 72.95703125 9.27734375 C79.41503261 11.0195348 85.57155184 13.11074451 91.69921875 15.7890625 C94.39882843 16.96806337 97.10411881 18.10092533 99.83203125 19.2109375 C119.69242748 27.37150035 138.04687131 37.36287327 155.1875 50.3125 C156.09870605 50.99046631 156.09870605 50.99046631 157.02832031 51.68212891 C166.70386367 58.90319519 175.5025435 66.93911144 184.1875 75.3125 C185.48880859 76.55193359 185.48880859 76.55193359 186.81640625 77.81640625 C192.42940102 83.27321334 197.36832002 89.14951022 202.1875 95.3125 C202.63996094 95.88323242 203.09242188 96.45396484 203.55859375 97.04199219 C224.69806691 123.81006491 240.75803317 154.71171167 249.48779297 187.67480469 C250.1650409 190.2278356 250.86485649 192.77387241 251.56640625 195.3203125 C260.57260497 228.68260648 260.66355331 264.29423197 255.1875 298.3125 C255.05359863 299.20275879 254.91969727 300.09301758 254.78173828 301.01025391 C247.68110065 347.44412062 225.45338037 392.4729225 193.48828125 426.82421875 C191.49097565 428.98429288 189.58206662 431.18797945 187.6875 433.4375 C183.56948133 438.15885629 178.91836524 442.2186096 174.1875 446.3125 C173.19621094 447.18003906 172.20492188 448.04757812 171.18359375 448.94140625 C149.36866903 467.86282595 124.08490274 484.40226402 96.75 494.046875 C93.86456126 495.07196508 91.06521182 496.17663281 88.25 497.375 C32.03989169 519.78496081 -38.90865617 516.51009387 -94.125 493.1875 C-112.36106128 485.22251943 -129.6072081 475.86627293 -145.8125 464.3125 C-146.885 463.55453125 -147.9575 462.7965625 -149.0625 462.015625 C-166.54723916 449.27408636 -182.43145913 434.30389718 -195.8125 417.3125 C-197.29153874 415.56239188 -198.77070807 413.81239411 -200.25 412.0625 C-216.44995652 392.17817837 -228.86940331 368.27873851 -237.8125 344.3125 C-238.12010254 343.50248535 -238.42770508 342.6924707 -238.74462891 341.85791016 C-241.16206271 335.37976456 -243.15831924 328.88364618 -244.875 322.1875 C-245.13321533 321.18178955 -245.39143066 320.1760791 -245.6574707 319.13989258 C-251.09639319 297.54755945 -254.76350041 274.64962287 -253.890625 252.34765625 C-253.80900441 250.22143981 -253.76393115 248.09602919 -253.71875 245.96875 C-252.68486345 210.39922335 -243.48925204 174.61475714 -226.80371094 143.18896484 C-225.8104505 141.30862008 -224.84455313 139.41616189 -223.8828125 137.51953125 C-214.28458249 118.79003831 -201.58261276 102.15700544 -187.8125 86.3125 C-187.01457031 85.38953125 -186.21664062 84.4665625 -185.39453125 83.515625 C-181.40049296 78.9785075 -177.31132703 74.8337294 -172.6875 70.94140625 C-170.90681042 69.39443218 -169.30710779 67.77523524 -167.6875 66.0625 C-162.23979761 60.55344961 -155.98792251 55.96371666 -149.8125 51.3125 C-149.18617676 50.83651367 -148.55985352 50.36052734 -147.91455078 49.87011719 C-129.24795156 35.79741908 -108.59266239 24.73086147 -86.8125 16.3125 C-86.01102539 15.99732422 -85.20955078 15.68214844 -84.38378906 15.35742188 C-70.22888395 9.85624577 -55.6703132 6.36206921 -40.8125 3.3125 C-39.88840332 3.12252441 -38.96430664 2.93254883 -38.01220703 2.73681641 C-25.42365065 0.29123294 -12.78150669 0.03904802 0 0 Z M-46.8125 9.3125 C-48.70688677 9.74152386 -50.60142275 10.16988933 -52.49609375 10.59765625 C-95.19307154 20.64695753 -133.96527097 41.91998618 -165.99609375 71.71875 C-168.28991982 73.83123337 -170.6166627 75.86598406 -173 77.875 C-177.70312748 81.96846281 -181.73565182 86.60691712 -185.8125 91.3125 C-186.6684375 92.28058594 -187.524375 93.24867187 -188.40625 94.24609375 C-199.71997012 107.18191875 -209.39278773 121.34412263 -217.8125 136.3125 C-218.19535156 136.993125 -218.57820313 137.67375 -218.97265625 138.375 C-224.38884759 148.09911911 -228.94720933 157.87281463 -232.8125 168.3125 C-233.24175781 169.42753906 -233.67101562 170.54257813 -234.11328125 171.69140625 C-240.3743138 188.41979973 -243.98937529 205.71626532 -246.8125 223.3125 C-246.93254395 224.03050781 -247.05258789 224.74851563 -247.17626953 225.48828125 C-252.9563796 260.9786739 -248.06193958 301.58687328 -235.8125 335.3125 C-235.52503906 336.11993652 -235.23757812 336.92737305 -234.94140625 337.75927734 C-230.89467864 349.05359336 -226.38913277 359.93462741 -220.75634766 370.53076172 C-219.85540809 372.23150072 -218.97976776 373.94556986 -218.10546875 375.66015625 C-211.10648534 389.15000016 -202.36249693 401.5196201 -192.8125 413.3125 C-192.37244629 413.85696777 -191.93239258 414.40143555 -191.47900391 414.96240234 C-179.18505716 430.03424481 -165.54195868 443.84179001 -149.8125 455.3125 C-149.2340332 455.74111328 -148.65556641 456.16972656 -148.05957031 456.61132812 C-140.48227973 462.22011134 -132.74384876 467.48656966 -124.60546875 472.25878906 C-123.36437832 472.98816628 -122.12765689 473.72500987 -120.89453125 474.46777344 C-94.67295427 490.20325556 -65.73762676 499.00097762 -35.8125 504.3125 C-34.88300537 504.50086426 -33.95351074 504.68922852 -32.99584961 504.88330078 C-21.8016915 506.94914772 -10.46696445 506.70763253 0.875 506.6875 C1.96776245 506.68728851 3.0605249 506.68707703 4.18640137 506.68685913 C20.55098186 506.65519833 36.17080297 505.91946952 52.1875 502.3125 C53.56711914 502.02366943 53.56711914 502.02366943 54.97460938 501.72900391 C71.3005958 498.31014356 87.19864605 493.65466012 102.19580078 486.27294922 C104.59292671 485.11699269 107.01235085 484.01469563 109.43359375 482.91015625 C140.74533782 468.49517759 171.03861812 447.04557312 193.1875 420.3125 C194.01636719 419.37148438 194.84523438 418.43046875 195.69921875 417.4609375 C202.64733176 409.53974422 208.56248162 401.21178281 214.1875 392.3125 C214.55552734 391.74402344 214.92355469 391.17554688 215.30273438 390.58984375 C231.62693039 365.32690485 242.50820832 336.89685778 248.70654297 307.54248047 C249.01327964 306.1202811 249.33857292 304.70187062 249.68798828 303.28955078 C253.19056246 288.90895283 253.53429623 274.4721172 253.50317383 259.7512207 C253.50002227 256.64693752 253.5235351 253.54361885 253.54882812 250.43945312 C253.59013502 237.14897611 252.47080242 224.40057869 250.1875 211.3125 C250.06755676 210.60639084 249.94761353 209.90028168 249.82403564 209.17277527 C238.96181461 145.53840883 199.27492663 87.5448816 147.1875 50.3125 C131.18994351 38.99062254 113.70692043 29.38228266 95.34375 22.49609375 C93.14268685 21.67069507 90.96614447 20.77815695 88.8125 19.8359375 C76.05964985 14.47644229 62.53633861 11.59946503 49 9 C48.33178223 8.87112396 47.66356445 8.74224792 46.97509766 8.60946655 C36.12345086 6.53277898 25.69881118 5.16448923 14.65234375 5.07421875 C13.17006287 5.05952797 13.17006287 5.05952797 11.65783691 5.04454041 C-17.81279955 4.69882903 -17.81279955 4.69882903 -46.8125 9.3125 Z " fill="#2D7389" transform="translate(253.8125,-0.3125)"/>
<path d="M0 0 C3 1.375 3 1.375 5 3 C5 3.66 5 4.32 5 5 C5.66 5 6.32 5 7 5 C7.33 4.01 7.66 3.02 8 2 C12.2418919 -0.82792793 16.01873743 -0.78122286 21 0 C24.12291165 1.68012647 26.39164837 3.78329674 28 7 C28.08510205 8.9593604 28.10717656 10.92162794 28.09765625 12.8828125 C28.09443359 14.04941406 28.09121094 15.21601563 28.08789062 16.41796875 C28.07532227 18.25294922 28.07532227 18.25294922 28.0625 20.125 C28.05798828 21.35605469 28.05347656 22.58710938 28.04882812 23.85546875 C28.0370133 26.90369392 28.02054028 29.95182314 28 33 C24.37 33 20.74 33 17 33 C16.93941406 31.49566406 16.87882812 29.99132812 16.81640625 28.44140625 C16.73201957 26.48176011 16.64737065 24.52212524 16.5625 22.5625 C16.52318359 21.56927734 16.48386719 20.57605469 16.44335938 19.55273438 C16.40146484 18.60849609 16.35957031 17.66425781 16.31640625 16.69140625 C16.26141968 15.37958374 16.26141968 15.37958374 16.20532227 14.04125977 C16.21818934 12.0072598 16.21818934 12.0072598 15 11 C12.5 10.83333333 12.5 10.83333333 10 11 C8.38219843 12.61780157 8.77727853 14.45635518 8.68359375 16.69140625 C8.64169922 17.63564453 8.59980469 18.57988281 8.55664062 19.55273438 C8.51732422 20.54595703 8.47800781 21.53917969 8.4375 22.5625 C8.39431641 23.55958984 8.35113281 24.55667969 8.30664062 25.58398438 C8.20019833 28.05581111 8.09956241 30.5278866 8 33 C4.37 33 0.74 33 -3 33 C-3.06058594 31.49566406 -3.12117188 29.99132812 -3.18359375 28.44140625 C-3.26798043 26.48176011 -3.35262935 24.52212524 -3.4375 22.5625 C-3.47681641 21.56927734 -3.51613281 20.57605469 -3.55664062 19.55273438 C-3.59853516 18.60849609 -3.64042969 17.66425781 -3.68359375 16.69140625 C-3.72025146 15.81685791 -3.75690918 14.94230957 -3.79467773 14.04125977 C-3.78181066 12.0072598 -3.78181066 12.0072598 -5 11 C-7.5 10.83333333 -7.5 10.83333333 -10 11 C-11.65079442 12.65079442 -11.22549447 14.63736179 -11.31640625 16.91015625 C-11.35830078 17.89951172 -11.40019531 18.88886719 -11.44335938 19.90820312 C-11.48267578 20.94912109 -11.52199219 21.99003906 -11.5625 23.0625 C-11.60568359 24.10728516 -11.64886719 25.15207031 -11.69335938 26.22851562 C-11.79981105 28.81883972 -11.90044308 31.40940175 -12 34 C-15.63 34 -19.26 34 -23 34 C-23 23.11 -23 12.22 -23 1 C-18.66666667 1 -14.33333333 1 -10 1 C-6.81055627 -0.59472187 -3.47081121 -0.38490832 0 0 Z " fill="#F5F7F7" transform="translate(155,252)"/>
<path d="M0 0 C3.63 0 7.26 0 11 0 C11.33 4.95 11.66 9.9 12 15 C12.99 14.34 13.98 13.68 15 13 C19.57840874 12.25001304 23.14207578 12.57913152 27.3125 14.625 C31.43747055 18.27032282 33.72410223 20.62953139 34.3828125 26.2890625 C34.71514964 36.81307179 34.71514964 36.81307179 32.1875 40.6875 C31.465625 41.450625 30.74375 42.21375 30 43 C29.484375 43.598125 28.96875 44.19625 28.4375 44.8125 C25.1408261 47.53583931 21.27954182 47.26079636 17.23046875 47.234375 C14.26444087 46.92270832 12.33667171 45.80903616 10 44 C10 44.66 10 45.32 10 46 C6.7 46 3.4 46 0 46 C0 30.82 0 15.64 0 0 Z " fill="#F5F7F8" transform="translate(392,239)"/>
<path d="M0 0 C4.29 0 8.58 0 13 0 C13 8.91 13 17.82 13 27 C14.98 27 16.96 27 19 27 C19 29.97 19 32.94 19 36 C17.02 36 15.04 36 13 36 C13 38.97 13 41.94 13 45 C9.37 45 5.74 45 2 45 C2 42.36 2 39.72 2 37 C1.39937744 37.00523682 0.79875488 37.01047363 0.17993164 37.01586914 C-2.52586838 37.03658014 -5.23165177 37.04964125 -7.9375 37.0625 C-8.88302734 37.07087891 -9.82855469 37.07925781 -10.80273438 37.08789062 C-12.15141602 37.09272461 -12.15141602 37.09272461 -13.52734375 37.09765625 C-14.77632446 37.10551147 -14.77632446 37.10551147 -16.05053711 37.11352539 C-18 37 -18 37 -19 36 C-19.88662968 30.43539592 -19.5306579 26.09701655 -16.3671875 21.3671875 C-15.22710424 19.85145469 -14.06233688 18.35400876 -12.875 16.875 C-12.30523437 16.12863281 -11.73546875 15.38226563 -11.1484375 14.61328125 C-10.00713064 13.1218007 -8.84528196 11.64580687 -7.66308594 10.18652344 C-5.95400892 8.04393285 -5.95400892 8.04393285 -4.68847656 5.66503906 C-3.3828125 3.4453125 -3.3828125 3.4453125 0 0 Z " fill="#F3F5F6" transform="translate(106,241)"/>
<path d="M0 0 C-0.680625 0.9075 -1.36125 1.815 -2.0625 2.75 C-4.21446776 5.70078644 -4.21446776 5.70078644 -3.9375 8.3125 C-3.04927159 10.35897871 -3.04927159 10.35897871 0 11 C0.78375 10.175 1.5675 9.35 2.375 8.5 C5 6 5 6 7 6 C7.4359501 10.35950104 7.23867835 12.57653841 5.0625 16.4375 C1.33112608 19.55967001 -0.52228741 19.53191506 -5.20703125 19.2109375 C-5.79871094 19.14132812 -6.39039063 19.07171875 -7 19 C-7.23033936 19.55268555 -7.46067871 20.10537109 -7.69799805 20.67480469 C-10.31250914 25.3439597 -14.5183135 28.93000372 -18.27563477 32.70117188 C-19.80941224 34.2468882 -21.32353954 35.81027702 -22.83789062 37.375 C-23.81394984 38.36051958 -24.79112693 39.34493355 -25.76953125 40.328125 C-26.65229736 41.2243457 -27.53506348 42.12056641 -28.44458008 43.04394531 C-31 45 -31 45 -33.71362305 45.35839844 C-36 45 -36 45 -37.8125 43.9375 C-39.59049093 41.03656743 -39.05779554 38.35214147 -39 35 C-39.33 34.21625 -39.66 33.4325 -40 32.625 C-41.4645887 28.78045466 -41.1595501 25.06852745 -41 21 C-39.68 20.34 -38.36 19.68 -37 19 C-37.12375 17.14375 -37.12375 17.14375 -37.25 15.25 C-37.22351617 12.26792114 -37.06139024 11.10943478 -35.5625 8.4375 C-31.67352831 6.25588174 -28.25227297 7.16408309 -24 8 C-23.67 6.35 -23.34 4.7 -23 3 C-20.03 3 -17.06 3 -14 3 C-14 4.98 -14 6.96 -14 9 C-14.66 9 -15.32 9 -16 9 C-16 7.68 -16 6.36 -16 5 C-17.98 5 -19.96 5 -22 5 C-22 6.65 -22 8.3 -22 10 C-24.75924185 11.80411967 -25.88972103 12.0127245 -29.25 11.625 C-30.61125 11.315625 -30.61125 11.315625 -32 11 C-32.83699015 13.51097045 -33.22847925 15.46850711 -33.5 18.0625 C-34 22 -34 22 -35 24 C-34.34 24 -33.68 24 -33 24 C-32.62875 23.113125 -32.2575 22.22625 -31.875 21.3125 C-29.43580356 17.00325296 -26.4925412 14.2462706 -22 12 C-20.00039988 11.960008 -17.99952758 11.95653201 -16 12 C-16.33 12.99 -16.66 13.98 -17 15 C-18.093125 15.28875 -19.18625 15.5775 -20.3125 15.875 C-24.51190216 17.15617354 -25.84258839 18.22452967 -28 22 C-27.64733863 24.13096349 -27.64733863 24.13096349 -27 26 C-26.56429687 25.55269531 -26.12859375 25.10539062 -25.6796875 24.64453125 C-25.08414063 24.03996094 -24.48859375 23.43539063 -23.875 22.8125 C-23.23949219 22.16539062 -22.60398438 21.51828125 -21.94921875 20.8515625 C-20.2595797 19.24657471 -18.59950053 17.99993493 -16.6875 16.6875 C-13.30521413 13.30521413 -13.17997321 10.9051637 -12.46875 6.31640625 C-12 4 -12 4 -10.375 1.375 C-6.82491503 -0.68031235 -4.06252066 -0.27083471 0 0 Z " fill="#F1F4F4" transform="translate(275,401)"/>
<path d="M0 0 C3.07469523 1.70251719 5.40613254 3.81226508 7 7 C7.08510205 8.9593604 7.10717656 10.92162794 7.09765625 12.8828125 C7.09443359 14.04941406 7.09121094 15.21601563 7.08789062 16.41796875 C7.07532227 18.25294922 7.07532227 18.25294922 7.0625 20.125 C7.05798828 21.35605469 7.05347656 22.58710938 7.04882812 23.85546875 C7.0370133 26.90369392 7.02054028 29.95182314 7 33 C3.37 33 -0.26 33 -4 33 C-4.06058594 31.49566406 -4.12117188 29.99132812 -4.18359375 28.44140625 C-4.26798043 26.48176011 -4.35262935 24.52212524 -4.4375 22.5625 C-4.47681641 21.56927734 -4.51613281 20.57605469 -4.55664062 19.55273438 C-4.59853516 18.60849609 -4.64042969 17.66425781 -4.68359375 16.69140625 C-4.72025146 15.81685791 -4.75690918 14.94230957 -4.79467773 14.04125977 C-4.78181066 12.0072598 -4.78181066 12.0072598 -6 11 C-9 10.83333333 -9 10.83333333 -12 11 C-13.61780157 12.61780157 -13.22272147 14.45635518 -13.31640625 16.69140625 C-13.35830078 17.63564453 -13.40019531 18.57988281 -13.44335938 19.55273438 C-13.48267578 20.54595703 -13.52199219 21.53917969 -13.5625 22.5625 C-13.60568359 23.55958984 -13.64886719 24.55667969 -13.69335938 25.58398438 C-13.79980167 28.05581111 -13.90043759 30.5278866 -14 33 C-17.63 33 -21.26 33 -25 33 C-25 22.44 -25 11.88 -25 1 C-20.33333333 1 -15.66666667 1 -11 1 C-7.51556578 -0.74221711 -3.80112955 -0.58675154 0 0 Z " fill="#F6F8F9" transform="translate(238,252)"/>
<path d="M0 0 C3.63 0 7.26 0 11 0 C11.06058594 1.50433594 11.12117188 3.00867188 11.18359375 4.55859375 C11.26798043 6.51823989 11.35262935 8.47787476 11.4375 10.4375 C11.47681641 11.43072266 11.51613281 12.42394531 11.55664062 13.44726562 C11.61948242 14.86362305 11.61948242 14.86362305 11.68359375 16.30859375 C11.72025146 17.18314209 11.75690918 18.05769043 11.79467773 18.95874023 C11.78181066 20.9927402 11.78181066 20.9927402 13 22 C16 22.16666667 16 22.16666667 19 22 C20.61780157 20.38219843 20.22272147 18.54364482 20.31640625 16.30859375 C20.35830078 15.36435547 20.40019531 14.42011719 20.44335938 13.44726562 C20.48267578 12.45404297 20.52199219 11.46082031 20.5625 10.4375 C20.60568359 9.44041016 20.64886719 8.44332031 20.69335938 7.41601562 C20.79980167 4.94418889 20.90043759 2.4721134 21 0 C24.63 0 28.26 0 32 0 C32 10.56 32 21.12 32 32 C28.7 32 25.4 32 22 32 C22 31.01 22 30.02 22 29 C21.34 29 20.68 29 20 29 C20 29.66 20 30.32 20 31 C15.68092681 33.44845419 11.87575383 33.70524296 7 33 C2.88090375 30.63371067 1.44339629 28.43511237 0 24 C-0.22705078 21.22924805 -0.22705078 21.22924805 -0.1953125 18.26171875 C-0.18886719 17.19501953 -0.18242187 16.12832031 -0.17578125 15.02929688 C-0.15902344 13.92650391 -0.14226562 12.82371094 -0.125 11.6875 C-0.11597656 10.56537109 -0.10695313 9.44324219 -0.09765625 8.28710938 C-0.07414594 5.52464783 -0.03827662 2.7622964 0 0 Z " fill="#F7F9F9" transform="translate(350,253)"/>
<path d="M0 0 C4.01898734 2.71281646 4.01898734 2.71281646 5.5 4.6875 C5.5 5.6775 5.5 6.6675 5.5 7.6875 C-0.22925984 11.55862152 -5.01307367 10.56726288 -11.5 9.6875 C-12.16 9.6875 -12.82 9.6875 -13.5 9.6875 C-13.52698189 11.31240954 -13.54638757 12.93744633 -13.5625 14.5625 C-13.57410156 15.46742188 -13.58570313 16.37234375 -13.59765625 17.3046875 C-13.66249257 19.7043585 -13.66249257 19.7043585 -12.5 21.6875 C-6.18731397 22.06302165 -6.18731397 22.06302165 -0.5 19.6875 C1.48 21.0075 3.46 22.3275 5.5 23.6875 C5.16032174 26.85783042 4.50130809 27.68632607 2.0625 29.875 C-3.1792264 33.58256258 -8.21387086 33.27991008 -14.5 32.6875 C-19.51791684 30.26814724 -22.99958655 26.6883269 -25.5 21.6875 C-26.16816874 16.32696444 -26.76222572 10.96574807 -24.078125 6.12109375 C-17.47054475 -1.54539359 -9.68132183 -3.63049569 0 0 Z " fill="#F4F6F7" transform="translate(317.5,253.3125)"/>
<path d="M0 0 C3.63 0 7.26 0 11 0 C11 15.51 11 31.02 11 47 C7.37 47 3.74 47 0 47 C0 31.49 0 15.98 0 0 Z " fill="#F2F5F5" transform="translate(330,239)"/>
<path d="M0 0 C3.63 0 7.26 0 11 0 C11 10.89 11 21.78 11 33 C7.37 33 3.74 33 0 33 C0 22.11 0 11.22 0 0 Z " fill="#F2F5F6" transform="translate(192,253)"/>
<path d="M0 0 C2.97 0 5.94 0 9 0 C9 1.98 9 3.96 9 6 C8.34 6 7.68 6 7 6 C7 4.68 7 3.36 7 2 C5.02 2 3.04 2 1 2 C1 3.65 1 5.3 1 7 C-1.75924185 8.80411967 -2.88972103 9.0127245 -6.25 8.625 C-7.61125 8.315625 -7.61125 8.315625 -9 8 C-9.83699015 10.51097045 -10.22847925 12.46850711 -10.5 15.0625 C-11 19 -11 19 -12 21 C-11.34 21 -10.68 21 -10 21 C-9.62875 20.113125 -9.2575 19.22625 -8.875 18.3125 C-6.43580356 14.00325296 -3.4925412 11.2462706 1 9 C2.99960012 8.960008 5.00047242 8.95653201 7 9 C6.67 9.99 6.34 10.98 6 12 C4.906875 12.28875 3.81375 12.5775 2.6875 12.875 C-1.56582977 14.17262603 -2.82430126 15.17077022 -5 19 C-4.87625 20.423125 -4.87625 20.423125 -4.75 21.875 C-5.0645374 25.80671747 -6.08911185 26.35087321 -9 28.875 C-10.31988374 29.93365675 -11.64930382 30.98094797 -13 32 C-11.35 32.66 -9.7 33.32 -8 34 C-8 35.98 -8 37.96 -8 40 C-10.875 40.625 -10.875 40.625 -14 41 C-14.66 40.34 -15.32 39.68 -16 39 C-16 36.66666667 -16 34.33333333 -16 32 C-16.495 30.824375 -16.495 30.824375 -17 29.625 C-18.4645887 25.78045466 -18.1595501 22.06852745 -18 18 C-16.68 17.34 -15.36 16.68 -14 16 C-14.12375 14.14375 -14.12375 14.14375 -14.25 12.25 C-14.22351617 9.26792114 -14.06139024 8.10943478 -12.5625 5.4375 C-8.67352831 3.25588174 -5.25227297 4.16408309 -1 5 C-0.67 3.35 -0.34 1.7 0 0 Z " fill="#33758A" transform="translate(252,404)"/>
<path d="M0 0 C3.3 0 6.6 0 10 0 C10 10.56 10 21.12 10 32 C6.7 32 3.4 32 0 32 C0 21.44 0 10.88 0 0 Z " fill="#FCFCFC" transform="translate(255,253)"/>
<path d="M0 0 C4.37833766 -0.20364361 8.336437 0.18258122 12.65625 0.9375 C21.01366829 2.25860392 29.37325703 2.68708524 37.8125 3.125 C39.39130814 3.21165675 40.97008459 3.29889288 42.54882812 3.38671875 C46.3655542 3.59780575 50.18261912 3.80112146 54 4 C54 4.33 54 4.66 54 5 C46.74 5 39.48 5 32 5 C32 5.66 32 6.32 32 7 C39.59 7 47.18 7 55 7 C55 7.33 55 7.66 55 8 C28.22961151 8.3798047 28.22961151 8.3798047 15.1875 7.125 C14.35452393 7.04652832 13.52154785 6.96805664 12.66333008 6.88720703 C7.90989006 6.3770531 3.55684735 5.44797019 -1 4 C-0.67 2.68 -0.34 1.36 0 0 Z " fill="#247287" transform="translate(211,503)"/>
<path d="M0 0 C1.98 0 3.96 0 6 0 C6 2.97 6 5.94 6 9 C4.35 9.33 2.7 9.66 1 10 C1.268125 11.216875 1.53625 12.43375 1.8125 13.6875 C2.2444509 17.2574471 2.10575399 17.83284046 0.0625 21.0625 C-4.18178361 23.74765902 -6.18462091 23.06101573 -11 22 C-11.33 23.65 -11.66 25.3 -12 27 C-17.33087655 27.43695709 -17.33087655 27.43695709 -20 27 C-22.02829372 24.59140121 -23 23.16955691 -23 20 C-21.68 20.33 -20.36 20.66 -19 21 C-19 21.99 -19 22.98 -19 24 C-17.35 24 -15.7 24 -14 24 C-13.67 22.68 -13.34 21.36 -13 20 C-9.12315913 18.80712589 -6.08378077 18 -2 18 C-2.226875 17.29875 -2.45375 16.5975 -2.6875 15.875 C-3.09532639 12.12299725 -1.86377293 10.20568943 0 7 C1.32 7 2.64 7 4 7 C4 5.35 4 3.7 4 2 C2.68 2 1.36 2 0 2 C0 1.34 0 0.68 0 0 Z " fill="#E5EBEC" transform="translate(273,422)"/>
<path d="M0 0 C1.875 1 1.875 1 3 3 C3.53653931 6.57692871 3.65701652 9.76326302 1.9375 13 C-1.08999299 14.56257703 -3.66384962 14.3032864 -7 14 C-9.41486943 11.58513057 -9.2961925 10.87292211 -9.3125 7.5625 C-9.32925781 6.78003906 -9.34601563 5.99757813 -9.36328125 5.19140625 C-8.47678925 -0.15614227 -4.81976862 -0.60247108 0 0 Z " fill="#2E7388" transform="translate(412,262)"/>
<path d="M0 0 C2.97 0 5.94 0 9 0 C9 1.98 9 3.96 9 6 C8.34 6 7.68 6 7 6 C7 4.68 7 3.36 7 2 C5.02 2 3.04 2 1 2 C1 3.65 1 5.3 1 7 C-1.75924185 8.80411967 -2.88972103 9.0127245 -6.25 8.625 C-7.61125 8.315625 -7.61125 8.315625 -9 8 C-9.84186703 10.52560108 -10.26251314 12.57332877 -10.5625 15.1875 C-10.706875 16.445625 -10.85125 17.70375 -11 19 C-12.65 19.33 -14.3 19.66 -16 20 C-16 21.65 -16 23.3 -16 25 C-14.68 25.33 -13.36 25.66 -12 26 C-12 26.66 -12 27.32 -12 28 C-13.66611905 28.042721 -15.33382885 28.04063832 -17 28 C-18 27 -18 27 -18.09765625 24.93359375 C-18.08605469 24.10988281 -18.07445312 23.28617187 -18.0625 22.4375 C-18.05347656 21.61121094 -18.04445312 20.78492188 -18.03515625 19.93359375 C-18.02355469 19.29550781 -18.01195312 18.65742188 -18 18 C-16.68 17.34 -15.36 16.68 -14 16 C-14.12375 14.14375 -14.12375 14.14375 -14.25 12.25 C-14.22351617 9.26792114 -14.06139024 8.10943478 -12.5625 5.4375 C-8.67352831 3.25588174 -5.25227297 4.16408309 -1 5 C-0.67 3.35 -0.34 1.7 0 0 Z " fill="#D8E2E4" transform="translate(252,404)"/>
<path d="M0 0 C0.66 0.33 1.32 0.66 2 1 C2.42981467 12.68459143 1.23006266 23.5311063 -1 35 C-1.66 34.01 -2.32 33.02 -3 32 C-3.66 32.99 -4.32 33.98 -5 35 C-4.51868061 26.52624546 -3.88156317 18.07289124 -3.0625 9.625 C-2.98789551 8.78670654 -2.91329102 7.94841309 -2.83642578 7.0847168 C-2.63018436 5.04781919 -2.32419965 3.02148015 -2 1 C-1.34 0.67 -0.68 0.34 0 0 Z " fill="#246F85" transform="translate(509,267)"/>
<path d="M0 0 C3.5625 0.3125 3.5625 0.3125 5.5625 1.375 C7.19628851 4.54046524 6.41517564 6.96270286 5.5625 10.3125 C2.5625 12.3125 2.5625 12.3125 -1 12.125 C-4.4375 11.3125 -4.4375 11.3125 -6.4375 8.3125 C-6.01108868 3.08896136 -5.66029921 0.51457266 0 0 Z " fill="#F0F3F4" transform="translate(279.4375,273.6875)"/>
<path d="M0 0 C3.5625 0.25 3.5625 0.25 6.5625 2.25 C6.875 5.75 6.875 5.75 6.5625 9.25 C4.5625 11.25 4.5625 11.25 0.625 11.5625 C-1.93731382 11.48330121 -3.22522116 11.36578846 -5.5 10.125 C-6.93521013 7.25457974 -6.27237829 5.26840612 -5.4375 2.25 C-3.4375 0.25 -3.4375 0.25 0 0 Z " fill="#F2F4F5" transform="translate(259.4375,237.75)"/>
<path d="M0 0 C3.5625 0.3125 3.5625 0.3125 5.5 1.4375 C7.04388276 4.16199899 6.8892107 6.24141945 6.5625 9.3125 C4.5625 11.3125 4.5625 11.3125 0.625 11.625 C-1.93731382 11.54580121 -3.22522116 11.42828846 -5.5 10.1875 C-6.93521013 7.31707974 -6.27237829 5.33090612 -5.4375 2.3125 C-3.4375 0.3125 -3.4375 0.3125 0 0 Z " fill="#F2F4F5" transform="translate(197.4375,237.6875)"/>
<path d="M0 0 C10.23 0 20.46 0 31 0 C30.01 1.485 30.01 1.485 29 3 C29.66 3.66 30.32 4.32 31 5 C20.77 4.67 10.54 4.34 0 4 C0 2.68 0 1.36 0 0 Z " fill="#4A8091" transform="translate(243,506)"/>
<path d="M0 0 C0.50314563 2.77029586 1.00263838 5.5411652 1.5 8.3125 C1.64308594 9.09818359 1.78617188 9.88386719 1.93359375 10.69335938 C2.06894531 11.45068359 2.20429688 12.20800781 2.34375 12.98828125 C2.46943359 13.68477783 2.59511719 14.38127441 2.72460938 15.09887695 C3 17 3 17 3 20 C1.35 20.66 -0.3 21.32 -2 22 C-2.53464435 19.79496964 -3.05214435 17.58577828 -3.5625 15.375 C-3.85253906 14.14523437 -4.14257812 12.91546875 -4.44140625 11.6484375 C-4.99888533 8.00728042 -5.02875014 5.52566632 -4 2 C-1 0 -1 0 0 0 Z " fill="#2E7589" transform="translate(9,293)"/>
<path d="M0 0 C-1.98 0.99 -1.98 0.99 -4 2 C-4 2.66 -4 3.32 -4 4 C-2.68 4 -1.36 4 0 4 C0 5.65 0 7.3 0 9 C-1.32 9 -2.64 9 -4 9 C-4.33 9.99 -4.66 10.98 -5 12 C-5.66 11.67 -6.32 11.34 -7 11 C-7 8.69 -7 6.38 -7 4 C-9.33075929 4.95865509 -9.33075929 4.95865509 -11 8 C-11.99 7.34 -12.98 6.68 -14 6 C-10.0043325 -0.18684 -7.20903549 -0.84812182 0 0 Z " fill="#1D687E" transform="translate(277,420)"/>
<path d="M0 0 C1.32 0.33 2.64 0.66 4 1 C3.31195504 7.19240462 1.71951285 13.01955594 0 19 C-0.66 18.01 -1.32 17.02 -2 16 C-2.66 16.99 -3.32 17.98 -4 19 C-3.59060025 12.23784552 -2.43046191 6.32837252 0 0 Z " fill="#256F84" transform="translate(11,184)"/>
<path d="M0 0 C0.66 0.33 1.32 0.66 2 1 C1.58411954 7.19518473 0.39748106 12.26689311 -2 18 C-2.66 17.34 -3.32 16.68 -4 16 C-4.66 16.33 -5.32 16.66 -6 17 C-5.71515154 15.26969709 -5.42180062 13.54079286 -5.125 11.8125 C-4.96257812 10.84957031 -4.80015625 9.88664062 -4.6328125 8.89453125 C-4.01426342 6.06524192 -3.25183458 3.61030692 -2 1 C-1.34 0.67 -0.68 0.34 0 0 Z " fill="#2A7186" transform="translate(502,316)"/>
<path d="M0 0 C0.67610423 1.89248819 1.34050439 3.7891602 2 5.6875 C2.37125 6.74324219 2.7425 7.79898438 3.125 8.88671875 C3.9391857 11.78362056 4.17709796 14.01700623 4 17 C3.34 16.67 2.68 16.34 2 16 C1.34 16.66 0.68 17.32 0 18 C-1.65684137 14.2477416 -2.50208163 10.73646939 -3.125 6.6875 C-3.29257812 5.61886719 -3.46015625 4.55023438 -3.6328125 3.44921875 C-3.75398438 2.64097656 -3.87515625 1.83273438 -4 1 C-2 0 -2 0 0 0 Z " fill="#2C7388" transform="translate(501,181)"/>
<path d="M0 0 C2.50014115 3.74095194 1.90042304 6.44209421 1.125 10.75 C0.81949219 12.50570312 0.81949219 12.50570312 0.5078125 14.296875 C0.25644531 15.63492188 0.25644531 15.63492188 0 17 C-0.66 16.67 -1.32 16.34 -2 16 C-2.66 16.66 -3.32 17.32 -4 18 C-5.18825016 12.41522423 -5.14916979 7.38388962 -3 2 C-2.01 1.34 -1.02 0.68 0 0 Z " fill="#37798D" transform="translate(9,199)"/>
<path d="M0 0 C0.33 0 0.66 0 1 0 C1 4.29 1 8.58 1 13 C-2.3 13 -5.6 13 -9 13 C-7.8782037 11.2063257 -6.75245517 9.4151227 -5.625 7.625 C-4.99851562 6.62726563 -4.37203125 5.62953125 -3.7265625 4.6015625 C-2 2 -2 2 0 0 Z " fill="#236E84" transform="translate(107,255)"/>
<path d="M0 0 C2 3 2 3 1.5390625 5.69921875 C1.23742187 6.68535156 0.93578125 7.67148437 0.625 8.6875 C0.32851563 9.68136719 0.03203125 10.67523438 -0.2734375 11.69921875 C-0.51320313 12.45847656 -0.75296875 13.21773438 -1 14 C-2.32 14.33 -3.64 14.66 -5 15 C-6.59464418 10.50600278 -5.39338444 7.23267449 -3.984375 2.890625 C-3 1 -3 1 0 0 Z " fill="#3D7B90" transform="translate(498,331)"/>
<path d="M0 0 C0.33 0 0.66 0 1 0 C1 10.56 1 21.12 1 32 C0.67 32 0.34 32 0 32 C-0.66 26.06 -1.32 20.12 -2 14 C-2.99 14.495 -2.99 14.495 -4 15 C-3.67 10.38 -3.34 5.76 -3 1 C-2.67 1 -2.34 1 -2 1 C-1.67 4.3 -1.34 7.6 -1 11 C-0.67 7.37 -0.34 3.74 0 0 Z " fill="#14687E" transform="translate(4,239)"/>
<path d="M0 0 C-0.33 0.99 -0.66 1.98 -1 3 C-1.66 3 -2.32 3 -3 3 C-3.33 4.65 -3.66 6.3 -4 8 C-9.33087655 8.43695709 -9.33087655 8.43695709 -12 8 C-14.02829372 5.59140121 -15 4.16955691 -15 1 C-13.68 1.33 -12.36 1.66 -11 2 C-11 2.99 -11 3.98 -11 5 C-9.35 5 -7.7 5 -6 5 C-5.87625 4.360625 -5.7525 3.72125 -5.625 3.0625 C-5.41875 2.381875 -5.2125 1.70125 -5 1 C-3 0 -3 0 0 0 Z " fill="#D2DEE0" transform="translate(265,441)"/>
<path d="M0 0 C-0.33 0.99 -0.66 1.98 -1 3 C-2.093125 3.28875 -3.18625 3.5775 -4.3125 3.875 C-9.30647532 5.39858569 -10.84084693 7.85556682 -13.25 12.3125 C-13.62125 13.1478125 -13.62125 13.1478125 -14 14 C-14.66 14 -15.32 14 -16 14 C-15.93032569 10.51628457 -15.81133452 7.92141508 -13.4453125 5.234375 C-8.79102467 1.25602109 -6.23426384 -0.13552747 0 0 Z " fill="#DEE6E8" transform="translate(259,413)"/>
<path d="M0 0 C0.33 0.66 0.66 1.32 1 2 C0.34 2 -0.32 2 -1 2 C-1 2.66 -1 3.32 -1 4 C-2.43503555 4.36402369 -3.87316506 4.71586591 -5.3125 5.0625 C-6.11300781 5.25972656 -6.91351563 5.45695312 -7.73828125 5.66015625 C-10 6 -10 6 -13 5 C-12.67 3.68 -12.34 2.36 -12 1 C-4.37142857 -1.54285714 -4.37142857 -1.54285714 0 0 Z " fill="#3F8094" transform="translate(327,498)"/>
<path d="M0 0 C0.66 0 1.32 0 2 0 C2.50537432 5.30643041 1.30655751 7.86680312 -2 12 C-3.9686981 14.1093194 -5.14604359 14.92609993 -8.03125 15.17578125 C-10.02166818 15.18629402 -12.01203746 15.09939813 -14 15 C-13.67 14.34 -13.34 13.68 -13 13 C-11.906875 12.731875 -10.81375 12.46375 -9.6875 12.1875 C-5.43915981 10.81939045 -4.30168326 9.75089123 -2 6 C-0.74443113 2.82078213 -0.74443113 2.82078213 0 0 Z " fill="#E5ECEE" transform="translate(268,424)"/>
<path d="M0 0 C0.99 0.66 1.98 1.32 3 2 C2.835 2.7425 2.67 3.485 2.5 4.25 C1.88074304 7.19006578 1.88074304 7.19006578 2 11 C-1.27275026 11 -3.846632 10.70074844 -7 10 C-7 9.34 -7 8.68 -7 8 C-6.21625 7.38125 -5.4325 6.7625 -4.625 6.125 C-2.13770844 4.11147826 -1.14461734 2.91357141 0 0 Z " fill="#357C8E" transform="translate(269,430)"/>
<path d="M0 0 C0.33 0.66 0.66 1.32 1 2 C2.32 2.66 3.64 3.32 5 4 C4.01 7.63 3.02 11.26 2 15 C1.67 14.34 1.34 13.68 1 13 C-1.02463255 12.34786708 -1.02463255 12.34786708 -3 12 C-2.68950274 10.56206608 -2.3765224 9.1246682 -2.0625 7.6875 C-1.88847656 6.88699219 -1.71445313 6.08648437 -1.53515625 5.26171875 C-1 3 -1 3 0 0 Z " fill="#387B90" transform="translate(14,172)"/>
<path d="M0 0 C0 0.66 0 1.32 0 2 C0.99 2.66 1.98 3.32 3 4 C1.27185839 4.19672365 -0.45759197 4.38196799 -2.1875 4.5625 C-3.15042969 4.66691406 -4.11335937 4.77132813 -5.10546875 4.87890625 C-7.94233377 4.99758751 -10.25423671 4.67765639 -13 4 C-12.375 2.0625 -12.375 2.0625 -11 0 C-7.0368361 -1.14491402 -3.96501494 -1.04956278 0 0 Z " fill="#3B7B8E" transform="translate(224,3)"/>
<path d="M0 0 C1.65 0.99 3.3 1.98 5 3 C4.21625 3.61875 3.4325 4.2375 2.625 4.875 C0.03162353 6.89858661 0.03162353 6.89858661 -2 9 C-4.625 8.625 -4.625 8.625 -7 8 C-7 7.01 -7 6.02 -7 5 C-5.46875 3.61328125 -5.46875 3.61328125 -3.5 2.3125 C-2.8503125 1.87550781 -2.200625 1.43851563 -1.53125 0.98828125 C-1.0259375 0.66214844 -0.520625 0.33601563 0 0 Z " fill="#32768E" transform="translate(112,45)"/>
<path d="M0 0 C3 0.125 3 0.125 4 1.125 C4.04080783 3.12458364 4.04254356 5.12545254 4 7.125 C1.125 7.75 1.125 7.75 -2 8.125 C-4 6.125 -4 6.125 -4.1875 3.5625 C-3.91067812 -0.03618446 -3.67800108 0.15325004 0 0 Z " fill="#CFDBDE" transform="translate(240,436.875)"/>
<path d="M0 0 C1.98 0 3.96 0 6 0 C6 0.99 6 1.98 6 3 C5.01 3.495 5.01 3.495 4 4 C4.33 4.66 4.66 5.32 5 6 C3.9275 6.45375 2.855 6.9075 1.75 7.375 C-0.88062317 8.50088537 -3.46000396 9.67920206 -6 11 C-6.33 10.34 -6.66 9.68 -7 9 C-5.1875 7 -5.1875 7 -3 5 C-2.01 5 -1.02 5 0 5 C0 3.35 0 1.7 0 0 Z " fill="#3F7C8C" transform="translate(253,406)"/>
<path d="M0 0 C-0.99 0.66 -1.98 1.32 -3 2 C-1.68 2.66 -0.36 3.32 1 4 C-8.41002278 6.29612756 -8.41002278 6.29612756 -13 6 C-13 4.68 -13 3.36 -13 2 C-8.49646738 0.24252386 -4.82360189 -0.19294408 0 0 Z " fill="#267185" transform="translate(215,4)"/>
<path d="M0 0 C1.32 0 2.64 0 4 0 C6.05519054 5.31931669 6.05519054 5.31931669 5.8125 8.3125 C5.4103125 9.1478125 5.4103125 9.1478125 5 10 C4.01 10.33 3.02 10.66 2 11 C0.57741188 7.17679443 -0.24042276 4.08718695 0 0 Z " fill="#226B80" transform="translate(8,313)"/>
<path d="M0 0 C0.99 0.33 1.98 0.66 3 1 C4.23076923 7.4 4.23076923 7.4 3.0625 10.4375 C2.711875 10.953125 2.36125 11.46875 2 12 C1.01 11.67 0.02 11.34 -1 11 C-2.25 3.375 -2.25 3.375 0 0 Z " fill="#31768A" transform="translate(503,196)"/>
<path d="M0 0 C0.144375 0.598125 0.28875 1.19625 0.4375 1.8125 C0.8872439 3.56150404 1.42892341 5.28677023 2 7 C1.22265625 9.04296875 1.22265625 9.04296875 0.0625 11.1875 C-0.31777344 11.90292969 -0.69804687 12.61835938 -1.08984375 13.35546875 C-1.54037109 14.16951172 -1.54037109 14.16951172 -2 15 C-3.625 13.375 -3.625 13.375 -5 11 C-4.11594545 6.84494363 -2.29480407 3.54651538 0 0 Z " fill="#1F6B84" transform="translate(32,134)"/>
<path d="M0 0 C-0.125 1.8125 -0.125 1.8125 -1 4 C-3.875 5.8125 -3.875 5.8125 -7 7 C-7.99 6.67 -8.98 6.34 -10 6 C-9.67 4.35 -9.34 2.7 -9 1 C-3.375 -1.125 -3.375 -1.125 0 0 Z " fill="#30778C" transform="translate(181,13)"/>
<path d="M0 0 C0 1.32 0 2.64 0 4 C-1.60379341 4.05416188 -3.20811406 4.09286638 -4.8125 4.125 C-5.70582031 4.14820313 -6.59914063 4.17140625 -7.51953125 4.1953125 C-10 4 -10 4 -13 2 C-8.50343896 -0.24828052 -4.92127034 -0.16682272 0 0 Z " fill="#246F83" transform="translate(282,506)"/>
<path d="M0 0 C1.78409802 3.06246747 2.22880021 5.22079273 2.125 8.75 C2.10695313 9.54921875 2.08890625 10.3484375 2.0703125 11.171875 C2.03550781 12.07679688 2.03550781 12.07679688 2 13 C1.34 12.34 0.68 11.68 0 11 C-0.66 11.99 -1.32 12.98 -2 14 C-3.10228696 9.59085217 -3.07654536 5.51617599 -3 1 C-2.67 1 -2.34 1 -2 1 C-1.67 2.65 -1.34 4.3 -1 6 C-0.67 4.02 -0.34 2.04 0 0 Z " fill="#1A6D81" transform="translate(6,284)"/>
<path d="M0 0 C2.8992226 0.46761655 3.86675182 0.86675182 6 3 C5.625 6.625 5.625 6.625 5 10 C-0.73529412 4.70588235 -0.73529412 4.70588235 -1 1 C-0.67 0.67 -0.34 0.34 0 0 Z " fill="#296E85" transform="translate(457,101)"/>
<path d="M0 0 C0.66 0 1.32 0 2 0 C2 0.66 2 1.32 2 2 C3.32 2 4.64 2 6 2 C6 3.65 6 5.3 6 7 C4.68 7 3.36 7 2 7 C1.67 7.66 1.34 8.32 1 9 C0 8 0 8 -0.09765625 6.15234375 C-0.06510417 4.1015625 -0.03255208 2.05078125 0 0 Z " fill="#2D6E80" transform="translate(271,422)"/>
<path d="M0 0 C-0.33 1.32 -0.66 2.64 -1 4 C-8.75 3.25 -8.75 3.25 -11 1 C-7.2297564 -1.56376565 -4.32597804 -0.83191885 0 0 Z " fill="#236D82" transform="translate(196,499)"/>
<path d="M0 0 C0.721875 0.268125 1.44375 0.53625 2.1875 0.8125 C2.1875 1.8025 2.1875 2.7925 2.1875 3.8125 C0 5.625 0 5.625 -2.8125 6.8125 C-5.625 6 -5.625 6 -7.8125 4.8125 C-3.50480769 -0.23365385 -3.50480769 -0.23365385 0 0 Z " fill="#357992" transform="translate(416.8125,450.1875)"/>
<path d="M0 0 C2.09230769 4.43076923 2.09230769 4.43076923 1.625 7.3125 C1.41875 7.869375 1.2125 8.42625 1 9 C0.67 8.67 0.34 8.34 0 8 C-0.66 8.66 -1.32 9.32 -2 10 C-2.66 7.03 -3.32 4.06 -4 1 C-2 0 -2 0 0 0 Z " fill="#1F6B81" transform="translate(501,181)"/>
<path d="M0 0 C0.66 1.32 1.32 2.64 2 4 C-0.97 4.66 -3.94 5.32 -7 6 C-6.67 5.34 -6.34 4.68 -6 4 C-6.66 3.34 -7.32 2.68 -8 2 C-4.91190305 0.23537317 -3.76687864 0 0 0 Z " fill="#267289" transform="translate(333,495)"/>
<path d="M0 0 C-0.639375 0.268125 -1.27875 0.53625 -1.9375 0.8125 C-4.33131686 1.88667752 -4.33131686 1.88667752 -5 5 C-6.65 5 -8.3 5 -10 5 C-9 2 -9 2 -8 0 C-8.66 -0.33 -9.32 -0.66 -10 -1 C-5.92224809 -1.9267618 -3.57818963 -2.33958553 0 0 Z " fill="#18687D" transform="translate(264,441)"/>
<path d="M0 0 C0.66 0.33 1.32 0.66 2 1 C-0.97 3.97 -0.97 3.97 -4 7 C-3.01 7.66 -2.02 8.32 -1 9 C-2.28788008 9.53012738 -3.58046678 10.0488329 -4.875 10.5625 C-5.95394531 10.99755859 -5.95394531 10.99755859 -7.0546875 11.44140625 C-9 12 -9 12 -11 11 C-7.37 7.37 -3.74 3.74 0 0 Z " fill="#256F85" transform="translate(262,427)"/>
<path d="M0 0 C-0.33 0.99 -0.66 1.98 -1 3 C-0.34 3.33 0.32 3.66 1 4 C-1.31 4.33 -3.62 4.66 -6 5 C-6.12375 4.360625 -6.2475 3.72125 -6.375 3.0625 C-6.684375 2.0415625 -6.684375 2.0415625 -7 1 C-7.66 0.67 -8.32 0.34 -9 0 C-3.375 -1.125 -3.375 -1.125 0 0 Z " fill="#3F7D90" transform="translate(203,7)"/>
<path d="M0 0 C-0.639375 0.2475 -1.27875 0.495 -1.9375 0.75 C-4.18741541 1.81562433 -4.18741541 1.81562433 -4.75 4.125 C-4.8325 4.74375 -4.915 5.3625 -5 6 C-5 5.34 -5 4.68 -5 4 C-6.65 3.67 -8.3 3.34 -10 3 C-9.67 3.99 -9.34 4.98 -9 6 C-9.66 6 -10.32 6 -11 6 C-11.33 4.68 -11.66 3.36 -12 2 C-7.72424275 -1.23921004 -5.16347713 -1.11369115 0 0 Z " fill="#498395" transform="translate(260,439)"/>
<path d="M0 0 C0.33 0 0.66 0 1 0 C1.08706892 3.27066566 1.14041241 6.54103365 1.1875 9.8125 C1.21263672 10.74126953 1.23777344 11.67003906 1.26367188 12.62695312 C1.27333984 13.51962891 1.28300781 14.41230469 1.29296875 15.33203125 C1.3086792 16.15421143 1.32438965 16.9763916 1.34057617 17.82348633 C1 20 1 20 -2 23 C-1.34 15.41 -0.68 7.82 0 0 Z " fill="#C9D7DD" transform="translate(511,272)"/>
<path d="M0 0 C0.33 0 0.66 0 1 0 C1.144375 1.134375 1.28875 2.26875 1.4375 3.4375 C1.61171478 6.80777201 1.61171478 6.80777201 3 8 C3.07244053 10.01964199 3.08377188 12.04167124 3.0625 14.0625 C3.05347656 15.16722656 3.04445313 16.27195313 3.03515625 17.41015625 C3.02355469 18.26480469 3.01195312 19.11945313 3 20 C2.34 19.67 1.68 19.34 1 19 C-0.30060902 12.8159722 -0.10141817 6.28792678 0 0 Z " fill="#457E8F" transform="translate(1,231)"/>
<path d="M0 0 C0.78375 0.04125 1.5675 0.0825 2.375 0.125 C1.16263672 0.81335938 1.16263672 0.81335938 -0.07421875 1.515625 C-3.801111 5.32812733 -3.40329067 8.72839653 -3.4375 13.875 C-3.46263672 14.76316406 -3.48777344 15.65132813 -3.51367188 16.56640625 C-3.5724526 18.75304918 -3.60879539 20.93769532 -3.625 23.125 C-3.955 23.125 -4.285 23.125 -4.625 23.125 C-4.68289006 19.66673658 -4.71855821 16.20859707 -4.75 12.75 C-4.76675781 11.76515625 -4.78351563 10.7803125 -4.80078125 9.765625 C-4.80722656 8.82460938 -4.81367188 7.88359375 -4.8203125 6.9140625 C-4.83078613 6.04475098 -4.84125977 5.17543945 -4.85205078 4.27978516 C-4.49287068 0.87105011 -3.33864709 0.15898319 0 0 Z " fill="#0A657E" transform="translate(147.625,261.875)"/>
<path d="M0 0 C3.47733117 1.15911039 3.71562011 1.68261541 5.3125 4.8125 C5.67988281 5.49957031 6.04726563 6.18664062 6.42578125 6.89453125 C7 9 7 9 6.10546875 11.26171875 C5.74066406 11.83535156 5.37585938 12.40898437 5 13 C2.30804541 8.96206812 1.08504342 4.70185482 0 0 Z " fill="#357287" transform="translate(478,134)"/>
<path d="M0 0 C5.75 0.75 5.75 0.75 8 3 C6.3125 4.625 6.3125 4.625 4 6 C1.25 5.1875 1.25 5.1875 -1 4 C-0.67 2.68 -0.34 1.36 0 0 Z " fill="#276F84" transform="translate(341,15)"/>
<path d="M0 0 C0.99 0.66 1.98 1.32 3 2 C3.1875 5.125 3.1875 5.125 3 8 C2.01 8.33 1.02 8.66 0 9 C-0.66 9.99 -1.32 10.98 -2 12 C-1.85962479 10.18706911 -1.71255111 8.3746557 -1.5625 6.5625 C-1.48128906 5.55316406 -1.40007812 4.54382813 -1.31640625 3.50390625 C-1 1 -1 1 0 0 Z " fill="#3D7B8D" transform="translate(3,266)"/>
<path d="M0 0 C2.97 0 5.94 0 9 0 C8.67 1.32 8.34 2.64 8 4 C5.69 4 3.38 4 1 4 C0.67 2.68 0.34 1.36 0 0 Z " fill="#237187" transform="translate(223,2)"/>
<path d="M0 0 C1.98 1.65 3.96 3.3 6 5 C5.67 6.65 5.34 8.3 5 10 C3.0625 8.9375 3.0625 8.9375 1 7 C0.25 3.3125 0.25 3.3125 0 0 Z " fill="#377489" transform="translate(440,80)"/>
<path d="M0 0 C1.98 0 3.96 0 6 0 C6 2.97 6 5.94 6 9 C4.35 9 2.7 9 1 9 C1.99 8.67 2.98 8.34 4 8 C4 6.02 4 4.04 4 2 C2.68 2 1.36 2 0 2 C0 1.34 0 0.68 0 0 Z " fill="#E5ECED" transform="translate(273,422)"/>
<path d="M0 0 C1.32 0.33 2.64 0.66 4 1 C3.43628586 4.26954202 2.50037734 5.82575883 0 8 C-0.66 7.67 -1.32 7.34 -2 7 C-1.34 4.69 -0.68 2.38 0 0 Z " fill="#297188" transform="translate(11,184)"/>
<path d="M0 0 C4.31392226 0.4793247 6.16569547 1.7457985 9 5 C7.375 5.75 7.375 5.75 5 6 C1.75 4.0625 1.75 4.0625 -1 2 C-0.67 1.34 -0.34 0.68 0 0 Z " fill="#296D83" transform="translate(401,47)"/>
<path d="M0 0 C2.475 0.99 2.475 0.99 5 2 C4.34 3.65 3.68 5.3 3 7 C0.69 6.01 -1.62 5.02 -4 4 C-2.68 2.68 -1.36 1.36 0 0 Z " fill="#34778C" transform="translate(373,28)"/>
<path d="M0 0 C2.64 0.33 5.28 0.66 8 1 C7.01 1.33 6.02 1.66 5 2 C5 2.66 5 3.32 5 4 C5.99 4.33 6.98 4.66 8 5 C2.25 5.125 2.25 5.125 0 4 C0 2.68 0 1.36 0 0 Z " fill="#226E83" transform="translate(308,6)"/>
<path d="M0 0 C2 2 2 2 2.125 4.625 C2.08375 5.40875 2.0425 6.1925 2 7 C3.32 7.33 4.64 7.66 6 8 C6 8.66 6 9.32 6 10 C4.33388095 10.042721 2.66617115 10.04063832 1 10 C0 9 0 9 -0.09765625 6.93359375 C-0.08605469 6.10988281 -0.07445312 5.28617187 -0.0625 4.4375 C-0.05347656 3.61121094 -0.04445312 2.78492188 -0.03515625 1.93359375 C-0.02355469 1.29550781 -0.01195312 0.65742188 0 0 Z " fill="#E6EDEE" transform="translate(234,422)"/>
<path d="M0 0 C0.99 0 1.98 0 3 0 C3.33 1.98 3.66 3.96 4 6 C2.35 6.33 0.7 6.66 -1 7 C-1.625 5.1875 -1.625 5.1875 -2 3 C-1.34 2.01 -0.68 1.02 0 0 Z " fill="#3A798D" transform="translate(497,175)"/>
<path d="M0 0 C1.99097846 2.98646769 2.94124926 5.59687262 4 9 C3.01 9.33 2.02 9.66 1 10 C0.34 10.66 -0.32 11.32 -1 12 C-1.625 9.125 -1.625 9.125 -2 6 C-1.34 5.34 -0.68 4.68 0 4 C0 2.68 0 1.36 0 0 Z " fill="#3A7A8E" transform="translate(490,152)"/>
<path d="M0 0 C0.33 0 0.66 0 1 0 C1 2.64 1 5.28 1 8 C-1.64 7.67 -4.28 7.34 -7 7 C-6.01 5.68 -5.02 4.36 -4 3 C-2.68 3.33 -1.36 3.66 0 4 C0 2.68 0 1.36 0 0 Z " fill="#1A6379" transform="translate(261,406)"/>
<path d="M0 0 C0.33 1.32 0.66 2.64 1 4 C1.66 4 2.32 4 3 4 C3.33 2.68 3.66 1.36 4 0 C3.67 3.3 3.34 6.6 3 10 C2.34 9.01 1.68 8.02 1 7 C0.34 7.99 -0.32 8.98 -1 10 C-0.67 6.7 -0.34 3.4 0 0 Z " fill="#15687E" transform="translate(505,292)"/>
<path d="M0 0 C1.125 1.5625 1.125 1.5625 2 4 C1.125 7.75 1.125 7.75 0 11 C-0.33 10.34 -0.66 9.68 -1 9 C-1.66 9 -2.32 9 -3 9 C-1.125 2.25 -1.125 2.25 0 0 Z " fill="#216B80" transform="translate(243,416)"/>
<path d="M0 0 C0.66 0.33 1.32 0.66 2 1 C2.125 4.375 2.125 4.375 2 8 C1.34 8.66 0.68 9.32 0 10 C-1.37494222 7.73538929 -2.07991957 6.54345306 -1.6875 3.875 C-1 2 -1 2 0 0 Z " fill="#216E85" transform="translate(22,348)"/>
<path d="M0 0 C-3.625 3 -3.625 3 -7 3 C-7.66 2.67 -8.32 2.34 -9 2 C-8.67 1.01 -8.34 0.02 -8 -1 C-4.71293093 -2.47351372 -2.99288606 -1.8171094 0 0 Z " fill="#3A7A91" transform="translate(98,63)"/>
<path d="M0 0 C1.65 0 3.3 0 5 0 C5.33 1.32 5.66 2.64 6 4 C2.98968256 4.93423645 2.13349732 5.04449911 -1 4 C-0.67 2.68 -0.34 1.36 0 0 Z " fill="#34798E" transform="translate(315,499)"/>
<path d="M0 0 C1.12894876 0.93274109 2.25300876 1.87140122 3.375 2.8125 C4.00148438 3.33457031 4.62796875 3.85664062 5.2734375 4.39453125 C7 6 7 6 9 9 C6 9 6 9 4.39453125 7.79296875 C3.87246094 7.26316406 3.35039062 6.73335938 2.8125 6.1875 C2.01779297 5.40439453 2.01779297 5.40439453 1.20703125 4.60546875 C0 3 0 3 0 0 Z " fill="#3B7C8E" transform="translate(431,88)"/>
<path d="M0 0 C0.33 1.32 0.66 2.64 1 4 C-0.98 4.33 -2.96 4.66 -5 5 C-5.33 3.68 -5.66 2.36 -6 1 C-4 0 -4 0 0 0 Z " fill="#226D83" transform="translate(196,8)"/>
<path d="M0 0 C0.66 1.65 1.32 3.3 2 5 C0.68 5.33 -0.64 5.66 -2 6 C-2.99 4.35 -3.98 2.7 -5 1 C-2 0 -2 0 0 0 Z " fill="#3F7C91" transform="translate(337,493)"/>
<path d="M0 0 C0.33 0 0.66 0 1 0 C1.33 3.96 1.66 7.92 2 12 C1.01 11.67 0.02 11.34 -1 11 C-1.02688151 9.35425434 -1.04634123 7.70838587 -1.0625 6.0625 C-1.07410156 5.14597656 -1.08570313 4.22945312 -1.09765625 3.28515625 C-1 1 -1 1 0 0 Z " fill="#357588" transform="translate(4,228)"/>
<path d="M0 0 C0.99 1.32 1.98 2.64 3 4 C1.515 6.475 1.515 6.475 0 9 C-1.3950848 6.70221327 -2.07438619 5.5207033 -1.6875 2.8125 C-1 1 -1 1 0 0 Z " fill="#35778F" transform="translate(456,408)"/>
<path d="M0 0 C0.66 0.33 1.32 0.66 2 1 C2 2.32 2 3.64 2 5 C1.34 5 0.68 5 0 5 C-0.33 6.32 -0.66 7.64 -1 9 C-3.125 4.375 -3.125 4.375 -2 1 C-1.67 1.33 -1.34 1.66 -1 2 C-0.67 1.34 -0.34 0.68 0 0 Z " fill="#206C83" transform="translate(18,337)"/>
<path d="M0 0 C-0.66 1.32 -1.32 2.64 -2 4 C-3.9375 3.6875 -3.9375 3.6875 -6 3 C-6.33 2.01 -6.66 1.02 -7 0 C-3.98968256 -0.93423645 -3.13349732 -1.04449911 0 0 Z " fill="#457E90" transform="translate(299,4)"/>
<path d="M0 0 C2.475 0.99 2.475 0.99 5 2 C4.01 3.485 4.01 3.485 3 5 C0.03 4.505 0.03 4.505 -3 4 C-2.01 2.68 -1.02 1.36 0 0 Z " fill="#246F89" transform="translate(418,447)"/>
<path d="M0 0 C1.32 0 2.64 0 4 0 C3.67 1.65 3.34 3.3 3 5 C1.68 4.67 0.36 4.34 -1 4 C-0.67 2.68 -0.34 1.36 0 0 Z " fill="#237086" transform="translate(240,438)"/>
<path d="M0 0 C0.99 0.33 1.98 0.66 3 1 C2.67 2.98 2.34 4.96 2 7 C1.01 7 0.02 7 -1 7 C-2 4 -2 4 -1.0625 1.8125 C-0.5365625 0.9153125 -0.5365625 0.9153125 0 0 Z " fill="#457D8F" transform="translate(504,200)"/>
<path d="M0 0 C-0.25 1.875 -0.25 1.875 -1 4 C-3.0625 5.25 -3.0625 5.25 -5 6 C-5.33 4.68 -5.66 3.36 -6 2 C-2.25 0 -2.25 0 0 0 Z " fill="#367B91" transform="translate(375,477)"/>
<path d="M0 0 C3.24208567 0.35049575 4.61527704 0.56221181 6.8125 3.0625 C7.204375 3.701875 7.59625 4.34125 8 5 C7.01 5.33 6.02 5.66 5 6 C3.35 4.02 1.7 2.04 0 0 Z " fill="#236B83" transform="translate(79,436)"/>
<path d="M0 0 C1.65 1.32 3.3 2.64 5 4 C4.34 5.65 3.68 7.3 3 9 C2.34 9 1.68 9 1 9 C0.67 6.03 0.34 3.06 0 0 Z " fill="#3C788B" transform="translate(505,287)"/>
<path d="M0 0 C1.32 1.32 2.64 2.64 4 4 C3.01 5.485 3.01 5.485 2 7 C0.68 5.35 -0.64 3.7 -2 2 C-1.34 1.34 -0.68 0.68 0 0 Z " fill="#34758E" transform="translate(90,445)"/>
<path d="M0 0 C2.31 0.33 4.62 0.66 7 1 C6.34 2.32 5.68 3.64 5 5 C2.525 4.01 2.525 4.01 0 3 C0 2.01 0 1.02 0 0 Z " fill="#E2EAEB" transform="translate(265,440)"/>
<path d="M0 0 C0.3125 2.3125 0.3125 2.3125 0 5 C-2.5 6.8125 -2.5 6.8125 -5 8 C-4.6875 5.125 -4.6875 5.125 -4 2 C-1 0 -1 0 0 0 Z " fill="#4D8595" transform="translate(9,293)"/>
<path d="M0 0 C3.24208567 0.35049575 4.61527704 0.56221181 6.8125 3.0625 C7.204375 3.701875 7.59625 4.34125 8 5 C6.02 5 4.04 5 2 5 C2 3.68 2 2.36 2 1 C1.34 0.67 0.68 0.34 0 0 Z " fill="#4B8091" transform="translate(280,505)"/>
<path d="M0 0 C0.99 0.33 1.98 0.66 3 1 C2.67 1.99 2.34 2.98 2 4 C2.99 4.99 3.98 5.98 5 7 C1.62496331 5.8141763 -0.64722731 4.72426311 -3 2 C-2.34 2 -1.68 2 -1 2 C-0.67 1.34 -0.34 0.68 0 0 Z " fill="#237289" transform="translate(125,470)"/>
<path d="M0 0 C-0.33 0.99 -0.66 1.98 -1 3 C-1.66 3 -2.32 3 -3 3 C-3.33 4.32 -3.66 5.64 -4 7 C-4.66 6.34 -5.32 5.68 -6 5 C-5.75 2.9375 -5.75 2.9375 -5 1 C-3 0 -3 0 0 0 Z " fill="#C4D5D8" transform="translate(265,441)"/>
<path d="M0 0 C0.66 0 1.32 0 2 0 C2.125 2.875 2.125 2.875 2 6 C1.34 6.66 0.68 7.32 0 8 C-0.38063221 5.6739143 -0.71269945 3.33944736 -1 1 C-0.67 0.67 -0.34 0.34 0 0 Z " fill="#D2DEE2" transform="translate(268,424)"/>
<path d="M0 0 C0.94875 0.04125 1.8975 0.0825 2.875 0.125 C2.545 1.115 2.215 2.105 1.875 3.125 C-0.435 2.795 -2.745 2.465 -5.125 2.125 C-3.125 0.125 -3.125 0.125 0 0 Z " fill="#C6D7DA" transform="translate(256.125,412.875)"/>
<path d="M0 0 C2.31 0.66 4.62 1.32 7 2 C6.01 3.485 6.01 3.485 5 5 C3.68 4.67 2.36 4.34 1 4 C1 3.34 1 2.68 1 2 C0.34 1.67 -0.32 1.34 -1 1 C-0.67 0.67 -0.34 0.34 0 0 Z " fill="#E3EBEC" transform="translate(244,408)"/>
<path d="M0 0 C1.32 0 2.64 0 4 0 C4 1.32 4 2.64 4 4 C3.34 4.66 2.68 5.32 2 6 C0.68 5.01 -0.64 4.02 -2 3 C-1.34 2.01 -0.68 1.02 0 0 Z " fill="#3A7890" transform="translate(462,399)"/>
<path d="M0 0 C0.99 0 1.98 0 3 0 C3.66 1.32 4.32 2.64 5 4 C4.34 4 3.68 4 3 4 C2.67 4.99 2.34 5.98 2 7 C0 4 0 4 0 0 Z " fill="#337289" transform="translate(42,392)"/>
<path d="M0 0 C0.66 0.33 1.32 0.66 2 1 C2 1.99 2 2.98 2 4 C1.01 4 0.02 4 -1 4 C-1.33 4.99 -1.66 5.98 -2 7 C-2.6875 5.1875 -2.6875 5.1875 -3 3 C-1.5625 1.25 -1.5625 1.25 0 0 Z " fill="#236E84" transform="translate(502,316)"/>
<path d="M0 0 C0.33 0 0.66 0 1 0 C1 3.63 1 7.26 1 11 C0.67 11 0.34 11 0 11 C-0.12375 10.21625 -0.2475 9.4325 -0.375 8.625 C-0.79117993 5.85942178 -0.79117993 5.85942178 -3 4 C-2.02727325 2.64664105 -1.0260734 1.31337396 0 0 Z " fill="#38788C" transform="translate(106,256)"/>
<path d="M0 0 C0.99 0.99 1.98 1.98 3 3 C2.34 4.32 1.68 5.64 1 7 C0.01 6.34 -0.98 5.68 -2 5 C-1.34 3.35 -0.68 1.7 0 0 Z " fill="#226C86" transform="translate(36,127)"/>
<path d="M0 0 C1.11375 0.3403125 1.11375 0.3403125 2.25 0.6875 C0.5625 2.25 0.5625 2.25 -1.75 3.6875 C-4.5 3.375 -4.5 3.375 -6.75 2.6875 C-4.29511132 0.41445492 -3.41240272 -0.38777304 0 0 Z " fill="#1E6D83" transform="translate(331.75,11.3125)"/>
<path d="M0 0 C0.99 0.66 1.98 1.32 3 2 C2.67 2.99 2.34 3.98 2 5 C0.35 5.33 -1.3 5.66 -3 6 C-2.01 4.02 -1.02 2.04 0 0 Z " fill="#418294" transform="translate(269,430)"/>
<path d="M0 0 C1.0625 1.8125 1.0625 1.8125 2 4 C1.67 4.99 1.34 5.98 1 7 C0.34 6.34 -0.32 5.68 -1 5 C-1.66 5 -2.32 5 -3 5 C-2.625 3.0625 -2.625 3.0625 -2 1 C-1.34 0.67 -0.68 0.34 0 0 Z " fill="#417D90" transform="translate(503,312)"/>
<path d="M0 0 C0.061875 0.61875 0.12375 1.2375 0.1875 1.875 C0.828919 4.27761141 0.828919 4.27761141 3.5625 5.25 C4.366875 5.4975 5.17125 5.745 6 6 C6 6.33 6 6.66 6 7 C4.02 7 2.04 7 0 7 C0 4.69 0 2.38 0 0 Z " fill="#437D90" transform="translate(119,261)"/>
<path d="M0 0 C1.0625 1.875 1.0625 1.875 2 4 C1.67 4.66 1.34 5.32 1 6 C-0.32 5.67 -1.64 5.34 -3 5 C-3 4.01 -3 3.02 -3 2 C-2.01 1.34 -1.02 0.68 0 0 Z " fill="#266E85" transform="translate(18,169)"/>
<path d="M0 0 C0.66 0.66 1.32 1.32 2 2 C2.66 1.67 3.32 1.34 4 1 C3.25 5.75 3.25 5.75 1 8 C1 6.68 1 5.36 1 4 C0.34 4 -0.32 4 -1 4 C-0.67 2.68 -0.34 1.36 0 0 Z " fill="#1E6D85" transform="translate(23,152)"/>
<path d="M0 0 C2.475 0.495 2.475 0.495 5 1 C5 1.66 5 2.32 5 3 C5.99 3.66 6.98 4.32 8 5 C6.02 5 4.04 5 2 5 C2 3.68 2 2.36 2 1 C1.34 0.67 0.68 0.34 0 0 Z " fill="#508898" transform="translate(219,2)"/>
<path d="M0 0 C-1.32 1.32 -2.64 2.64 -4 4 C-4.66 2.68 -5.32 1.36 -6 0 C-3.50907189 -1.24546405 -2.58919267 -0.7767578 0 0 Z " fill="#428295" transform="translate(241,433)"/>
<path d="M0 0 C1.9375 0.375 1.9375 0.375 4 1 C4.33 1.66 4.66 2.32 5 3 C3.68 3 2.36 3 1 3 C1 4.65 1 6.3 1 8 C-0.42944945 5.64561267 -1.08661261 4.51967567 -0.625 1.75 C-0.41875 1.1725 -0.2125 0.595 0 0 Z " fill="#B6C9CE" transform="translate(273,429)"/>
<path d="M0 0 C0 1.32 0 2.64 0 4 C-1.65 4 -3.3 4 -5 4 C-5 3.01 -5 2.02 -5 1 C-2 0 -2 0 0 0 Z " fill="#D2DDE0" transform="translate(240,420)"/>
<path d="M0 0 C0.66 0.66 1.32 1.32 2 2 C1.8125 4 1.8125 4 1 6 C0.01 6.66 -0.98 7.32 -2 8 C-1.47731534 5.23723823 -0.89130413 2.6739124 0 0 Z " fill="#247086" transform="translate(15,328)"/>
<path d="M0 0 C1.0625 1.8125 1.0625 1.8125 2 4 C1.67 4.99 1.34 5.98 1 7 C1 6.34 1 5.68 1 5 C-0.32 5 -1.64 5 -3 5 C-2 2 -2 2 0 0 Z " fill="#457D90" transform="translate(505,303)"/>
<path d="M0 0 C0.93423645 3.01031744 1.04449911 3.86650268 0 7 C-1.32 6.67 -2.64 6.34 -4 6 C-3.67 5.01 -3.34 4.02 -3 3 C-2.01 3 -1.02 3 0 3 C0 2.01 0 1.02 0 0 Z " fill="#186A82" transform="translate(13,188)"/>
<path d="M0 0 C0.66 0.66 1.32 1.32 2 2 C1.67 2.99 1.34 3.98 1 5 C0.67 4.67 0.34 4.34 0 4 C-0.66 4.66 -1.32 5.32 -2 6 C-2.33 4.35 -2.66 2.7 -3 1 C-2.01 0.67 -1.02 0.34 0 0 Z " fill="#1B6C82" transform="translate(497,172)"/>
<path d="M0 0 C0.99 0.66 1.98 1.32 3 2 C0.525 3.485 0.525 3.485 -2 5 C-2.99 4.34 -3.98 3.68 -5 3 C-3.35 2.01 -1.7 1.02 0 0 Z " fill="#3A778B" transform="translate(363,23)"/>
<path d="M0 0 C0.99 0.33 1.98 0.66 3 1 C2.67 2.65 2.34 4.3 2 6 C1.01 5.67 0.02 5.34 -1 5 C-0.67 3.35 -0.34 1.7 0 0 Z " fill="#448093" transform="translate(172,14)"/>
<path d="M0 0 C0.99 0.33 1.98 0.66 3 1 C2.01 1.495 2.01 1.495 1 2 C0.01 3.485 0.01 3.485 -1 5 C-2.32 4.34 -3.64 3.68 -5 3 C-2.6875 1.4375 -2.6875 1.4375 0 0 Z " fill="#3F7D8F" transform="translate(334,12)"/>
</svg>
