<!--?xml version="1.0" encoding="utf-8"?-->
<!-- Generator: Adobe Illustrator 19.1.1, SVG Export Plug-In . SVG Version: 6.00 Build 0)  -->
<svg version="1.1" id="_x31_0" xmlns="http://www.w3.org/2000/svg" xmlns:xlink="http://www.w3.org/1999/xlink" x="0px" y="0px" viewBox="0 0 512 512" style="width: 256px; height: 256px; opacity: 1;" xml:space="preserve">
<style type="text/css">
	.st0{fill:#374149;}
</style>
<g>
	<path class="st0" d="M460.282,118.914h-79.938l-2.398-16.594c-4.676-32.43-32.934-56.898-65.699-56.898H199.754
		c-32.766,0-60.984,24.469-65.699,56.898l-2.402,16.594H51.718C23.203,118.914,0,142.078,0,170.59v242.629
		c0,29.438,23.961,53.359,53.359,53.359h405.282c29.438,0,53.359-23.922,53.359-53.359V170.59
		C512,142.078,488.793,118.914,460.282,118.914z M474.094,203.356H362.992c-26.109-29.691-64.394-48.434-106.973-48.434
		c-42.578,0-80.902,18.742-107.015,48.434H37.902V170.59c0-7.625,6.191-13.774,13.816-13.774h112.786l7.074-49.106
		c2.023-13.98,14.023-24.386,28.175-24.386h112.493c14.148,0,26.152,10.406,28.171,24.386l7.122,49.106h112.742
		c7.621,0,13.812,6.149,13.812,13.774V203.356z M220.938,203.356c10.906-4.086,22.742-6.317,35.082-6.317
		c12.34,0,24.176,2.231,35.082,6.317c38.242,14.278,65.492,51.129,65.492,94.254c0,55.512-45.11,100.618-100.574,100.618
		s-100.613-45.106-100.613-100.618C155.406,254.484,182.695,217.633,220.938,203.356z" style="fill: rgb(62, 114, 132);"></path>
	<path class="st0" d="M256.019,358.469c33.566,0,60.817-27.25,60.817-60.86c0-33.566-27.25-60.812-60.817-60.812
		c-4.89,0-9.652,0.637-14.226,1.746c-0.34,0.07-0.699,0.102-1.035,0.18l0.008,0.023c-0.054,0.012-0.11,0.016-0.16,0.027
		l17.942,52.184c0.199,0.574,0.277,1.145,0.328,1.707c0.011,0.156,0.042,0.308,0.046,0.465c0.031,1.898-0.722,3.641-1.965,4.922
		c-0.109,0.114-0.23,0.199-0.347,0.305c-0.762,0.691-1.668,1.218-2.672,1.519c-0.191,0.059-0.387,0.106-0.586,0.145
		c-1.152,0.238-2.39,0.219-3.648-0.218l-49.211-16.918l-3.07-1.066c0,0.004,0,0.008,0,0.012l-0.152-0.055
		c-1.39,5.055-2.106,10.364-2.106,15.836C195.164,331.219,222.41,358.469,256.019,358.469z" style="fill: rgb(62, 114, 132);"></path>
</g>
</svg>
