<!--?xml version="1.0" encoding="utf-8"?-->
<!-- Generator: Adobe Illustrator 18.1.1, SVG Export Plug-In . SVG Version: 6.00 Build 0)  -->

<svg version="1.1" id="_x31_0" xmlns="http://www.w3.org/2000/svg" xmlns:xlink="http://www.w3.org/1999/xlink" x="0px" y="0px" viewBox="0 0 512 512" style="width: 256px; height: 256px; opacity: 1;" xml:space="preserve">
<style type="text/css">
	.st0{fill:#374149;}
</style>
<g>
	<path class="st0" d="M435.711,287.278c-4.801,0-9.485,0.5-14.043,1.355l-21.746-67.332l-2.144-6.695l32.738-6.855
		c12.777-2.672,22.09-13.762,22.812-26.672c5.465-4.871,8.973-11.887,8.973-19.782c0-7.898-3.508-14.91-8.973-19.781
		c-0.722-12.914-10.035-24.004-22.812-26.676l-48.325-10.114l-9.746-2.074v0.031l-0.161-0.031v10.41l-0.094,6.02l-63.594-46.942
		h-49.375c-7.117,0-12.89,5.774-12.89,12.894c0,7.122,5.774,12.894,12.89,12.894h40.887l34.84,25.715l20.101,14.953l-105.476,34.746
		c-7.297,2.406-12.906,7.809-15.809,14.543H97.394c-13.797,0-26.562,10.058-33.785,26.496l-14.504,33.141
		c-0.062,0.062-0.062,0.062-0.062,0.062l-2.645,6.062c-0.324,1.355-0.519,2.707-0.519,4.191c0,10.121,8.191,18.309,18.312,18.309
		h26.29l9.234,0.054c-1.442,3.813-3.161,8.321-5.106,13.39c-5.879-1.457-11.996-2.316-18.317-2.316
		C34.222,287.278,0,321.504,0,363.57c0,42.062,34.222,76.289,76.293,76.289c42.062,0,76.29-34.226,76.29-76.289
		c0-15.606-4.778-30.086-12.856-42.183c-0.277-0.43-0.473-0.895-0.758-1.321h10.27l0.039-0.05h16.246l-0.039,0.05h29.207l0.039-0.05
		h16.309l-0.039,0.05h29.207l0.039-0.05h16.308l-0.038,0.05h32.105l0.039-0.05h0.031v-0.043l31.707-43.438h38.082
		c14.156,0,26.003-10.058,28.789-23.402c0.426-1.878,0.668-3.824,0.734-5.816l15.274,47.301
		c-25.871,12.222-43.86,38.492-43.86,68.953c0,42.062,34.227,76.289,76.294,76.289S512,405.633,512,363.57
		C512,321.504,477.778,287.278,435.711,287.278z M76.293,414.07c-27.851,0-50.504-22.656-50.504-50.5
		c0-27.847,22.653-50.504,50.504-50.504c1.211,0,2.402,0.086,3.594,0.18c0.602,0.046,1.223,0.102,1.84,0.172
		c1.176,0.137,2.352,0.285,3.508,0.492c-2.336,6.027-4.722,12.191-7.094,18.281c-0.625-0.034-1.215-0.183-1.848-0.183
		c-17.434,0-31.562,14.129-31.562,31.562c0,17.43,14.129,31.558,31.562,31.558c17.43,0,31.558-14.129,31.558-31.558
		c0-9.855-4.609-18.546-11.683-24.332c2.203-5.664,4.195-10.789,6.058-15.582l1.074-2.688c14.094,8.973,23.492,24.691,23.492,42.602
		C126.793,391.414,104.137,414.07,76.293,414.07z M131.262,305.332l-2.394,3.098c-3.11-2.969-6.426-5.722-10.004-8.133l18.5-24.148
		h4.813l11.179,0.363L131.262,305.332z M173.191,310.016h-10.21l-5.973-0.094l25.871-33.774h4.812l11.18,0.363L173.191,310.016z
		 M218.707,310.016h-10.242l-5.992-0.094l25.91-33.774h1.266l1.91,0.226v0.16h8.016l4.726,0.094L218.707,310.016z M264.222,310.016
		h-10.242l-5.993-0.094l25.614-33.387h10.137l6.078,0.094L264.222,310.016z M368.554,247.122c0,5.554-4.519,10.074-10.074,10.074
		H250.898v-58.941c0-2.977,1.902-5.606,4.726-6.539l112.93-37.199V247.122z M391.625,196.102v-69.641l34.93,7.309
		c4.387,0.918,7.574,4.84,7.574,9.324V179.5c0,4.481-3.187,8.402-7.574,9.324l-29.156,6.102L391.625,196.102z M435.711,414.07
		c-27.848,0-50.504-22.656-50.504-50.5c0-18.992,10.546-35.546,26.078-44.172l6.016,18.629c-7.938,5.73-13.152,15.004-13.152,25.543
		c0,17.43,14.129,31.558,31.562,31.558c17.43,0,31.558-14.129,31.558-31.558c0-17.434-14.129-31.562-31.558-31.562
		c-0.012,0-0.02,0.004-0.035,0.004l-5.086-15.758l-0.874-2.797c1.968-0.234,3.961-0.391,5.996-0.391
		c27.847,0,50.504,22.657,50.504,50.504C486.215,391.414,463.558,414.07,435.711,414.07z" style="fill: rgb(62, 114, 132);"></path>
	<circle class="st0" cx="337.93" cy="225.764" r="12.49" style="fill: rgb(62, 114, 132);"></circle>
</g>
</svg>
