<!--?xml version="1.0" encoding="utf-8"?-->
<!-- Generator: Adobe Illustrator 18.1.1, SVG Export Plug-In . SVG Version: 6.00 Build 0)  -->

<svg version="1.1" id="_x31_0" xmlns="http://www.w3.org/2000/svg" xmlns:xlink="http://www.w3.org/1999/xlink" x="0px" y="0px" viewBox="0 0 512 512" style="width: 256px; height: 256px; opacity: 1;" xml:space="preserve">
<style type="text/css">
	.st0{fill:#374149;}
</style>
<g>
	<path class="st0" d="M435.603,282.116c-7.359,0-14.398,1.043-21.117,2.961l-45.038-76.198l-38.178-64.858
		c3.847,2.031,7.48,4.53,10.632,7.675c7.813,7.812,18.578,12.66,30.492,12.738c0.043,0.003,0.082,0.015,0.125,0.015v-0.008
		c0.054,0,0.11,0.008,0.164,0.008V77.164c-12.031,0-22.906,4.875-30.781,12.754c-7.671,7.664-17.765,12.426-28.609,12.426h-30.382
		c-9.375,0-17.039,7.664-17.039,17.031v2.867c0,5.73,2.989,10.663,7.371,13.742c0.473,0.359,0.875,0.778,1.386,1.094
		c-3.828,2.27-8.21,4.168-12.835,5.262c-4.844,1.145-13.836,2.238-19.523-3.316c-3.984-3.891-10.351-3.805-14.242,0.171
		c-3.883,3.981-3.805,10.359,0.171,14.242c4.031,3.942,8.867,6.742,14.289,8.359c7.11,2.117,15.242,2.203,23.938,0.148
		c10.019-2.367,19.441-7.394,26.866-13.632c0.297-0.238,0.625-0.442,0.918-0.684l8.754,14.813l14.078,23.761v48.878l-28.671,43.312
		l-17.504,26.261c-12.187-36.831-43.659-66.295-84.088-78.928H98.078c-45.991,14.367-80.474,50.449-88.068,94.432
		c-0.024,0.015-0.055,0.027-0.078,0.043c-6.164,4-10.164,10.961-9.922,18.96c0.398,11.918,10.805,21.117,22.718,21.117h28.64h40.319
		h71.998h40.398h59.843c14.078,0,27.202-7.038,35.038-18.8l46.077-69.597c5.523-8.402,17.922-8.082,22.961,0.559l17.124,28.882
		c-15.843,13.918-25.843,34.398-25.843,57.117c0,42.159,34.242,76.401,76.319,76.401c42.155,0,76.397-34.242,76.397-76.401
		C512,316.358,477.758,282.116,435.603,282.116z M471.681,358.436c0,19.921-16.156,36.159-36.078,36.159
		c-19.843,0-36.078-16.238-36.078-36.159c0-7.84,2.554-15.118,6.961-21.039l11.539,20.019c3.117,5.282,8.718,8.242,14.476,8.242
		c2.882,0,5.844-0.723,8.484-2.321c8-4.722,10.633-15.042,5.914-22.96l-6.832-11.859l-3.402-6.066
		C456.134,322.983,471.681,338.952,471.681,358.436z" style="fill: rgb(62, 114, 132);"></path>
	<path class="st0" d="M162.327,368.677c-4.476,14.961-18.32,25.918-34.64,25.918s-30.155-10.957-34.64-25.918H57.294l-5.046-0.023
		c0,0.007,0.003,0.015,0.003,0.023h-0.164c4.961,37.277,36.961,66.159,75.6,66.159c35.656,0,65.558-24.515,73.948-57.503
		c0.145-0.57,0.336-1.121,0.469-1.695c0.102-0.446,0.16-0.906,0.254-1.355c0.383-1.801,0.754-3.602,1.008-5.45h-0.027
		c0.008-0.05,0.023-0.102,0.027-0.156H162.327z" style="fill: rgb(62, 114, 132);"></path>
	<path class="st0" d="M214.881,177.88c0-7.386-6.038-13.43-13.429-13.43H76.517c-7.382,0-13.43,6.043-13.43,13.43v34.414h151.794
		V177.88z" style="fill: rgb(62, 114, 132);"></path>
</g>
</svg>
